# xmcd
#
# Track frame offsets:
#	150
#	12384
#	22440
#	32758
#	50361
#	59963
#	69714
#	81650
#	94734
#	109060
#	119835
#	132700
#	146057
#
# Disc length: 2098 seconds
#
# Revision: 0
# Processed by: cddbd v1.5.2PL0 Copyright (c) Steve Scherf et al.
# Submitted via: dBpowerAMP V4.0
#
DISCID=d708300d
DTITLE=Various Artist - The Very Best Of Vince Smith and Carol Redo
DYEAR=1995
DGENRE=Country
TTITLE0=Vince Smith and Carol Redo - It Only Hurts For A Little While
TTITLE1=Vince Smith and Carol Redo - Near You
TTITLE2=Vince Smith and Carol Redo - No Letter Today
TTITLE3=Vince Smith and Carol Redo - Oh! For The Love
TTITLE4=Vince Smith and Carol Redo - Let Me Go Lover
TTITLE5=Vince Smith and Carol Redo - Making Believe
TTITLE6=Carol - When You Walk In The Room
TTITLE7=Vince - Legally Devorced
TTITLE8=Carol - It Matters To Me
TTITLE9=Vince - It Would Still Be Worth It
TTITLE10=Vince - I Need You Tonight
TTITLE11=Vince - He'll Have To Go
TTITLE12=Carol - Johnny Angel
EXTD=
EXTT0=
EXTT1=
EXTT2=
EXTT3=
EXTT4=
EXTT5=
EXTT6=
EXTT7=
EXTT8=
EXTT9=
EXTT10=
EXTT11=
EXTT12=
PLAYORDER=
